# xmcd
#
# Track frame offsets:
#	150
#	19282
#	45950
#	66052
#	104292
#	122175
#	145690
#	164412
#
# Disc length: 2739 seconds
#
# Revision: 0
# Processed by: cddbd v1.4PL0 Copyright (c) Steve Scherf et al.
# Submitted via: EasyCDDAExtractor 4.6.9.1
#
DISCID=660ab108
DTITLE=Ry Cooder&David Lindley - live in osaka-1
DYEAR=1979
DGENRE=Blues
TTITLE0=alimony
TTITLE1=go home girl
TTITLE2=mexican divorce
TTITLE3=F.D.R. in Trinidad
TTITLE4=ax sweet mama
TTITLE5=Billy the kid
TTITLE6=denomination blues
TTITLE7=one meat ball
EXTD=
EXTT0=
EXTT1=
EXTT2=
EXTT3=
EXTT4=
EXTT5=
EXTT6=
EXTT7=
PLAYORDER=
